<svg width="202" height="266" viewBox="0 0 202 266" fill="none" xmlns="http://www.w3.org/2000/svg">
<path d="M51.5449 55.3774L146.983 55.3774V36.4383L51.5449 36.4383V55.3774Z" fill="#009456"/>
<path d="M85.2271 226.543V210.33C85.2269 202.743 86.7213 195.23 89.6248 188.22C92.5283 181.21 96.7842 174.84 102.149 169.475C107.514 164.11 113.884 159.854 120.894 156.95C127.904 154.047 135.417 152.552 143.004 152.552V152.552V226.543H85.2271Z" fill="#FC9B00"/>
<path d="M202.564 0H142.72V226.255H202.564V0Z" fill="#DC001E"/>
<path d="M136.138 107.676H146.983C149.859 107.676 152.617 108.819 154.651 110.852C156.685 112.886 157.828 115.645 157.828 118.521C157.828 121.397 156.685 124.155 154.651 126.189C152.617 128.223 149.859 129.365 146.983 129.365H136.138V107.676Z" fill="#25ACBD"/>
<path d="M177.471 0H191.932L151.211 86.0038H136.75L177.471 0Z" fill="white"/>
<path d="M155.235 0H169.694L128.978 86.0038H114.517L155.235 0Z" fill="white"/>
<path d="M18.1278 55.3774H37.0669V36.4383H18.1278L18.1278 55.3774Z" fill="#3EB2C3"/>
<path d="M46.3184 41.1082H57.2859" stroke="white" stroke-width="2" stroke-linecap="round" stroke-linejoin="round"/>
<path d="M46.3184 45.215H57.2859" stroke="white" stroke-width="2" stroke-linecap="round" stroke-linejoin="round"/>
<path d="M46.3184 49.3218H57.2859" stroke="white" stroke-width="2" stroke-linecap="round" stroke-linejoin="round"/>
<path d="M143.004 258.984C136.567 258.984 130.274 257.076 124.922 253.499C119.57 249.923 115.398 244.84 112.935 238.892C110.471 232.945 109.827 226.401 111.082 220.087C112.338 213.774 115.438 207.974 119.99 203.423C124.542 198.871 130.341 195.771 136.655 194.515C142.968 193.259 149.512 193.904 155.46 196.367C161.407 198.831 166.49 203.002 170.067 208.355C173.643 213.707 175.552 220 175.552 226.437" stroke="white" stroke-width="2" stroke-linecap="round" stroke-linejoin="round"/>
<path d="M174.522 234.587C173.966 236.719 173.197 238.79 172.224 240.767" stroke="white" stroke-width="2" stroke-linecap="round" stroke-linejoin="round"/>
<path d="M143.004 247.439C154.603 247.439 164.006 238.036 164.006 226.437C164.006 214.838 154.603 205.435 143.004 205.435C131.405 205.435 122.002 214.838 122.002 226.437C122.002 238.036 131.405 247.439 143.004 247.439Z" fill="#009456"/>
<path d="M146.385 254.909L151.395 259.919L146.385 264.929" stroke="white" stroke-width="2" stroke-linecap="round" stroke-linejoin="round"/>
<path d="M6.97363 40.8977L11.9837 45.9078L6.97363 50.9179" stroke="white" stroke-width="2" stroke-linecap="round" stroke-linejoin="round"/>
<path d="M1.96387 40.8977L6.97395 45.9078L1.96387 50.9179" stroke="white" stroke-width="2" stroke-linecap="round" stroke-linejoin="round"/>
</svg>
