<svg width="140" height="100" viewBox="0 0 140 100" fill="none" xmlns="http://www.w3.org/2000/svg">
<path d="M99.126 0.6875C99.126 26.9773 88.6824 52.1904 70.0927 70.7801C51.5029 89.3698 26.2899 99.8134 3.8147e-05 99.8134V0.6875L99.126 0.6875Z" fill="#3EB2C3"/>
<path d="M129.993 50.251H99.8116C94.5266 50.251 90.2422 54.5354 90.2422 59.8204C90.2422 65.1055 94.5266 69.3898 99.8116 69.3898H129.993C135.278 69.3898 139.563 65.1055 139.563 59.8204C139.563 54.5354 135.278 50.251 129.993 50.251Z" fill="#E95900"/>
<path d="M72.9383 69.3774C78.1682 69.3774 82.4079 65.1377 82.4079 59.9078C82.4079 54.6779 78.1682 50.4382 72.9383 50.4382C67.7084 50.4382 63.4688 54.6779 63.4688 59.9078C63.4688 65.1377 67.7084 69.3774 72.9383 69.3774Z" fill="white"/>
</svg>
