<svg width="154" height="38" viewBox="0 0 154 38" fill="none" xmlns="http://www.w3.org/2000/svg">
<path d="M66.5469 25.1582C66.5469 24.2174 66.2149 23.498 65.5508 23C64.8867 22.4909 63.6914 21.9596 61.9648 21.4062C60.2383 20.8418 58.8714 20.2884 57.8643 19.7461C55.1195 18.263 53.7471 16.2653 53.7471 13.7529C53.7471 12.4469 54.1123 11.2848 54.8428 10.2666C55.5843 9.2373 56.6413 8.4349 58.0137 7.85938C59.3971 7.28385 60.9466 6.99609 62.6621 6.99609C64.3887 6.99609 65.9271 7.31152 67.2774 7.94238C68.6276 8.56217 69.6735 9.44206 70.415 10.582C71.1677 11.722 71.544 13.0169 71.544 14.4668H66.5635C66.5635 13.36 66.2149 12.5023 65.5176 11.8935C64.8203 11.2738 63.8408 10.9639 62.5791 10.9639C61.3617 10.9639 60.4154 11.224 59.7402 11.7441C59.0651 12.2533 58.7275 12.9284 58.7275 13.7695C58.7275 14.5553 59.1204 15.2139 59.9063 15.7451C60.7031 16.2764 61.8708 16.7744 63.4092 17.2393C66.2425 18.0915 68.3066 19.1484 69.6016 20.4102C70.8965 21.6719 71.544 23.2435 71.544 25.125C71.544 27.2168 70.7526 28.8604 69.1699 30.0557C67.5872 31.2399 65.4567 31.832 62.7783 31.832C60.9189 31.832 59.2256 31.4945 57.6982 30.8193C56.1709 30.1331 55.0033 29.1979 54.1953 28.0137C53.3984 26.8294 53 25.457 53 23.8965H57.9971C57.9971 26.5638 59.5908 27.8975 62.7783 27.8975C63.9626 27.8975 64.8867 27.6595 65.5508 27.1836C66.2149 26.6966 66.5469 26.0215 66.5469 25.1582ZM79.6709 15.4961C80.9437 13.9688 82.543 13.2051 84.4687 13.2051C88.3646 13.2051 90.3402 15.4684 90.3955 19.9951V31.5H85.5976V20.1279C85.5976 19.0986 85.3763 18.3405 84.9336 17.8535C84.4909 17.3555 83.7549 17.1064 82.7256 17.1064C81.32 17.1064 80.3017 17.6488 79.6709 18.7334V31.5H74.873V6H79.6709V15.4961ZM93.6416 22.3525C93.6416 20.5706 93.9847 18.9824 94.6709 17.5879C95.3571 16.1934 96.3421 15.1143 97.6259 14.3506C98.9209 13.5869 100.42 13.2051 102.125 13.2051C104.549 13.2051 106.524 13.9466 108.052 15.4297C109.59 16.9128 110.448 18.9271 110.625 21.4727L110.658 22.7012C110.658 25.457 109.889 27.6706 108.35 29.3418C106.812 31.002 104.748 31.832 102.158 31.832C99.5683 31.832 97.4987 31.002 95.9492 29.3418C94.4108 27.6816 93.6416 25.4238 93.6416 22.5684V22.3525ZM98.4394 22.7012C98.4394 24.4056 98.7604 25.7116 99.4023 26.6191C100.044 27.5156 100.963 27.9639 102.158 27.9639C103.32 27.9639 104.228 27.5212 104.881 26.6357C105.534 25.7393 105.86 24.3115 105.86 22.3525C105.86 20.6813 105.534 19.3864 104.881 18.4678C104.228 17.5492 103.309 17.0898 102.125 17.0898C100.952 17.0898 100.044 17.5492 99.4023 18.4678C98.7604 19.3753 98.4394 20.7865 98.4394 22.7012ZM129.609 24.9756L131.967 13.5371H136.599L132.016 31.5H127.999L124.596 20.1943L121.192 31.5H117.191L112.609 13.5371H117.241L119.582 24.959L122.869 13.5371H126.339L129.609 24.9756ZM149.092 26.5361C149.092 25.9495 148.798 25.4902 148.212 25.1582C147.636 24.8151 146.707 24.5107 145.423 24.2451C141.151 23.3486 139.015 21.5335 139.015 18.7998C139.015 17.2061 139.673 15.8779 140.99 14.8154C142.318 13.7419 144.05 13.2051 146.186 13.2051C148.466 13.2051 150.287 13.7419 151.648 14.8154C153.02 15.889 153.706 17.2835 153.706 18.999H148.909C148.909 18.3128 148.688 17.7484 148.245 17.3057C147.802 16.8519 147.111 16.625 146.17 16.625C145.362 16.625 144.737 16.8076 144.294 17.1729C143.851 17.5381 143.63 18.0029 143.63 18.5674C143.63 19.0986 143.879 19.5303 144.377 19.8623C144.886 20.1833 145.738 20.4655 146.933 20.709C148.129 20.9414 149.136 21.207 149.955 21.5059C152.489 22.4355 153.756 24.0459 153.756 26.3369C153.756 27.9749 153.053 29.3031 151.648 30.3213C150.243 31.3285 148.428 31.832 146.203 31.832C144.698 31.832 143.359 31.5664 142.185 31.0352C141.023 30.4928 140.11 29.7568 139.446 28.8271C138.782 27.8864 138.45 26.8737 138.45 25.7891H142.999C143.043 26.6413 143.359 27.2943 143.945 27.748C144.532 28.2018 145.318 28.4287 146.303 28.4287C147.221 28.4287 147.913 28.2572 148.378 27.9141C148.854 27.5599 149.092 27.1006 149.092 26.5361Z" fill="white"/>
<g clip-path="url(#clip0_2_7)">
<path fill-rule="evenodd" clip-rule="evenodd" d="M30.5669 25.8505L11.8887 37.1856C8.36076 39.0424 3.60775 37.5991 1.27258 34.1256C0.442581 32.9128 0 31.5454 0 30.1851V7.8182C0 3.99111 3.42973 0.512154 7.66051 0.0477228C9.16427 -0.117351 10.6348 0.147379 11.8887 0.817664L30.5669 12.1528C34.0948 14.5781 35.0618 19.7697 32.7266 23.585C32.1589 24.4988 31.4244 25.2693 30.5669 25.8505Z" fill="white"/>
</g>
<defs>
<clipPath id="clip0_2_7">
<rect width="34" height="38" fill="white"/>
</clipPath>
</defs>
</svg>
