<svg width="224" height="194" viewBox="0 0 224 194" fill="none" xmlns="http://www.w3.org/2000/svg">
<path d="M151.461 51.0486H53.958V194.6H151.461V51.0486Z" fill="#DC001E"/>
<path d="M171.078 135.75H224.461V100.543H171.078V135.75Z" fill="#E95900"/>
<path d="M136.204 135.75H171.411V100.543H136.204V135.75Z" fill="white"/>
<path d="M101.835 100.627C101.835 82.1184 109.188 64.3675 122.275 51.2795C135.363 38.1916 153.114 30.8388 171.623 30.8385V101.027L101.835 100.627Z" fill="#3EB2C3"/>
<path d="M204.169 38.8085L170.528 72.4454L158.357 60.2745" stroke="white" stroke-width="2" stroke-linecap="round" stroke-linejoin="round"/>
<path d="M58.718 86.5725C50.5445 89.2955 41.7471 89.5337 33.4383 87.2568C25.1294 84.98 17.6824 80.2905 12.0387 73.7812C6.39513 67.272 2.80846 59.2353 1.73232 50.6876C0.656168 42.1399 2.13886 33.4651 5.99291 25.7601C9.84695 18.0551 15.8992 11.666 23.3844 7.40075C30.8696 3.13545 39.4515 1.18552 48.0449 1.7976C56.6383 2.40968 64.8572 5.55632 71.6622 10.8395C78.4673 16.1226 83.553 23.305 86.276 31.4785" stroke="white" stroke-width="2" stroke-linecap="round" stroke-linejoin="round"/>
<path d="M88.4162 42.2625C88.6136 45.2044 88.5131 48.1587 88.1162 51.0804" stroke="white" stroke-width="2" stroke-linecap="round" stroke-linejoin="round"/>
<path d="M44.9498 73.3535C60.4728 73.3535 73.0568 60.7696 73.0568 45.2465C73.0568 29.7235 60.4728 17.1395 44.9498 17.1395C29.4267 17.1395 16.8428 29.7235 16.8428 45.2465C16.8428 60.7696 29.4267 73.3535 44.9498 73.3535Z" fill="#FC9B00"/>
<path d="M60.8618 78.7015L69.3428 82.9435L65.1008 91.4244" stroke="white" stroke-width="2" stroke-linecap="round" stroke-linejoin="round"/>
</svg>
